<mxfile host="app.diagrams.net" agent="Mozilla/5.0 (Macintosh; Intel Mac OS X 10_15_7) AppleWebKit/605.1.15 (KHTML, like Gecko) Version/18.0.1 Safari/605.1.15" version="24.8.4">
  <diagram name="Page-1" id="Crfskke2mbZvqnTMhLuV">
    <mxGraphModel dx="1266" dy="1861" grid="1" gridSize="10" guides="1" tooltips="1" connect="1" arrows="1" fold="1" page="1" pageScale="1" pageWidth="827" pageHeight="1169" math="0" shadow="0">
      <root>
        <mxCell id="0" />
        <mxCell id="1" parent="0" />
        <mxCell id="Saez-D12AgWFrH29UN2s-152" value="" style="shape=table;startSize=0;container=1;collapsible=0;childLayout=tableLayout;" vertex="1" parent="1">
          <mxGeometry x="50" y="-1130" width="750" height="1047" as="geometry" />
        </mxCell>
        <mxCell id="Saez-D12AgWFrH29UN2s-153" value="" style="shape=tableRow;horizontal=0;startSize=0;swimlaneHead=0;swimlaneBody=0;strokeColor=inherit;top=0;left=0;bottom=0;right=0;collapsible=0;dropTarget=0;fillColor=none;points=[[0,0.5],[1,0.5]];portConstraint=eastwest;" vertex="1" parent="Saez-D12AgWFrH29UN2s-152">
          <mxGeometry width="750" height="70" as="geometry" />
        </mxCell>
        <mxCell id="Saez-D12AgWFrH29UN2s-154" value="Customer" style="shape=partialRectangle;html=1;whiteSpace=wrap;connectable=0;strokeColor=inherit;overflow=hidden;fillColor=none;top=0;left=0;bottom=0;right=0;pointerEvents=1;" vertex="1" parent="Saez-D12AgWFrH29UN2s-153">
          <mxGeometry width="250" height="70" as="geometry">
            <mxRectangle width="250" height="70" as="alternateBounds" />
          </mxGeometry>
        </mxCell>
        <mxCell id="Saez-D12AgWFrH29UN2s-155" value="Store Manager" style="shape=partialRectangle;html=1;whiteSpace=wrap;connectable=0;strokeColor=inherit;overflow=hidden;fillColor=none;top=0;left=0;bottom=0;right=0;pointerEvents=1;" vertex="1" parent="Saez-D12AgWFrH29UN2s-153">
          <mxGeometry x="250" width="250" height="70" as="geometry">
            <mxRectangle width="250" height="70" as="alternateBounds" />
          </mxGeometry>
        </mxCell>
        <mxCell id="Saez-D12AgWFrH29UN2s-156" value="" style="shape=partialRectangle;html=1;whiteSpace=wrap;connectable=0;strokeColor=inherit;overflow=hidden;fillColor=none;top=0;left=0;bottom=0;right=0;pointerEvents=1;" vertex="1" parent="Saez-D12AgWFrH29UN2s-153">
          <mxGeometry x="500" width="250" height="70" as="geometry">
            <mxRectangle width="250" height="70" as="alternateBounds" />
          </mxGeometry>
        </mxCell>
        <mxCell id="Saez-D12AgWFrH29UN2s-157" value="" style="shape=tableRow;horizontal=0;startSize=0;swimlaneHead=0;swimlaneBody=0;strokeColor=inherit;top=0;left=0;bottom=0;right=0;collapsible=0;dropTarget=0;fillColor=none;points=[[0,0.5],[1,0.5]];portConstraint=eastwest;" vertex="1" parent="Saez-D12AgWFrH29UN2s-152">
          <mxGeometry y="70" width="750" height="977" as="geometry" />
        </mxCell>
        <mxCell id="Saez-D12AgWFrH29UN2s-158" value="" style="shape=partialRectangle;html=1;whiteSpace=wrap;connectable=0;strokeColor=inherit;overflow=hidden;fillColor=none;top=0;left=0;bottom=0;right=0;pointerEvents=1;" vertex="1" parent="Saez-D12AgWFrH29UN2s-157">
          <mxGeometry width="250" height="977" as="geometry">
            <mxRectangle width="250" height="977" as="alternateBounds" />
          </mxGeometry>
        </mxCell>
        <mxCell id="Saez-D12AgWFrH29UN2s-159" value="" style="shape=partialRectangle;html=1;whiteSpace=wrap;connectable=0;strokeColor=inherit;overflow=hidden;fillColor=none;top=0;left=0;bottom=0;right=0;pointerEvents=1;" vertex="1" parent="Saez-D12AgWFrH29UN2s-157">
          <mxGeometry x="250" width="250" height="977" as="geometry">
            <mxRectangle width="250" height="977" as="alternateBounds" />
          </mxGeometry>
        </mxCell>
        <mxCell id="Saez-D12AgWFrH29UN2s-160" value="" style="shape=partialRectangle;html=1;whiteSpace=wrap;connectable=0;strokeColor=inherit;overflow=hidden;fillColor=none;top=0;left=0;bottom=0;right=0;pointerEvents=1;" vertex="1" parent="Saez-D12AgWFrH29UN2s-157">
          <mxGeometry x="500" width="250" height="977" as="geometry">
            <mxRectangle width="250" height="977" as="alternateBounds" />
          </mxGeometry>
        </mxCell>
        <mxCell id="Saez-D12AgWFrH29UN2s-176" value="" style="ellipse;html=1;shape=startState;fillColor=#000000;strokeColor=#ff0000;" vertex="1" parent="1">
          <mxGeometry x="1150" y="-1120" width="30" height="30" as="geometry" />
        </mxCell>
        <mxCell id="Saez-D12AgWFrH29UN2s-177" value="" style="edgeStyle=orthogonalEdgeStyle;html=1;verticalAlign=bottom;endArrow=open;endSize=8;strokeColor=#ff0000;rounded=0;" edge="1" source="Saez-D12AgWFrH29UN2s-176" parent="1">
          <mxGeometry relative="1" as="geometry">
            <mxPoint x="1165" y="-1030" as="targetPoint" />
          </mxGeometry>
        </mxCell>
        <mxCell id="Saez-D12AgWFrH29UN2s-191" style="edgeStyle=orthogonalEdgeStyle;rounded=0;orthogonalLoop=1;jettySize=auto;html=1;exitX=0.5;exitY=1;exitDx=0;exitDy=0;entryX=0.5;entryY=0;entryDx=0;entryDy=0;" edge="1" parent="1" source="Saez-D12AgWFrH29UN2s-178" target="Saez-D12AgWFrH29UN2s-190">
          <mxGeometry relative="1" as="geometry" />
        </mxCell>
        <mxCell id="Saez-D12AgWFrH29UN2s-178" value="Check AVS Card" style="rounded=1;whiteSpace=wrap;html=1;arcSize=40;fontColor=#000000;fillColor=#ffffc0;strokeColor=#ff0000;" vertex="1" parent="1">
          <mxGeometry x="1105" y="-1030" width="120" height="40" as="geometry" />
        </mxCell>
        <mxCell id="Saez-D12AgWFrH29UN2s-219" style="edgeStyle=orthogonalEdgeStyle;rounded=0;orthogonalLoop=1;jettySize=auto;html=1;entryX=1;entryY=0.5;entryDx=0;entryDy=0;" edge="1" parent="1" source="Saez-D12AgWFrH29UN2s-182" target="Saez-D12AgWFrH29UN2s-178">
          <mxGeometry relative="1" as="geometry">
            <Array as="points">
              <mxPoint x="1380" y="-900" />
              <mxPoint x="1380" y="-1010" />
            </Array>
          </mxGeometry>
        </mxCell>
        <mxCell id="Saez-D12AgWFrH29UN2s-182" value="Register" style="rounded=1;whiteSpace=wrap;html=1;arcSize=40;fontColor=#000000;fillColor=#ffffc0;strokeColor=#ff0000;" vertex="1" parent="1">
          <mxGeometry x="1241" y="-920" width="120" height="40" as="geometry" />
        </mxCell>
        <mxCell id="Saez-D12AgWFrH29UN2s-188" value="Check Overdue Video" style="rounded=1;whiteSpace=wrap;html=1;arcSize=40;fontColor=#000000;fillColor=#ffffc0;strokeColor=#ff0000;" vertex="1" parent="1">
          <mxGeometry x="1010" y="-920" width="120" height="40" as="geometry" />
        </mxCell>
        <mxCell id="Saez-D12AgWFrH29UN2s-189" value="" style="edgeStyle=orthogonalEdgeStyle;html=1;verticalAlign=bottom;endArrow=open;endSize=8;strokeColor=#ff0000;rounded=0;" edge="1" source="Saez-D12AgWFrH29UN2s-188" parent="1">
          <mxGeometry relative="1" as="geometry">
            <mxPoint x="1070" y="-820" as="targetPoint" />
          </mxGeometry>
        </mxCell>
        <mxCell id="Saez-D12AgWFrH29UN2s-192" style="edgeStyle=orthogonalEdgeStyle;rounded=0;orthogonalLoop=1;jettySize=auto;html=1;entryX=0.5;entryY=0;entryDx=0;entryDy=0;" edge="1" parent="1" source="Saez-D12AgWFrH29UN2s-190" target="Saez-D12AgWFrH29UN2s-182">
          <mxGeometry relative="1" as="geometry" />
        </mxCell>
        <mxCell id="Saez-D12AgWFrH29UN2s-271" value="No" style="edgeLabel;html=1;align=center;verticalAlign=middle;resizable=0;points=[];" vertex="1" connectable="0" parent="Saez-D12AgWFrH29UN2s-192">
          <mxGeometry x="-0.8219" relative="1" as="geometry">
            <mxPoint as="offset" />
          </mxGeometry>
        </mxCell>
        <mxCell id="Saez-D12AgWFrH29UN2s-197" style="edgeStyle=orthogonalEdgeStyle;rounded=0;orthogonalLoop=1;jettySize=auto;html=1;" edge="1" parent="1" source="Saez-D12AgWFrH29UN2s-190" target="Saez-D12AgWFrH29UN2s-188">
          <mxGeometry relative="1" as="geometry" />
        </mxCell>
        <mxCell id="Saez-D12AgWFrH29UN2s-270" value="Yes" style="edgeLabel;html=1;align=center;verticalAlign=middle;resizable=0;points=[];" vertex="1" connectable="0" parent="Saez-D12AgWFrH29UN2s-197">
          <mxGeometry x="-0.7905" y="-1" relative="1" as="geometry">
            <mxPoint as="offset" />
          </mxGeometry>
        </mxCell>
        <mxCell id="Saez-D12AgWFrH29UN2s-190" value="" style="rhombus;whiteSpace=wrap;html=1;" vertex="1" parent="1">
          <mxGeometry x="1145" y="-970" width="40" height="40" as="geometry" />
        </mxCell>
        <mxCell id="Saez-D12AgWFrH29UN2s-204" style="edgeStyle=orthogonalEdgeStyle;rounded=0;orthogonalLoop=1;jettySize=auto;html=1;entryX=0.5;entryY=0;entryDx=0;entryDy=0;" edge="1" parent="1" source="Saez-D12AgWFrH29UN2s-194" target="Saez-D12AgWFrH29UN2s-198">
          <mxGeometry relative="1" as="geometry" />
        </mxCell>
        <mxCell id="Saez-D12AgWFrH29UN2s-269" value="Yes" style="edgeLabel;html=1;align=center;verticalAlign=middle;resizable=0;points=[];" vertex="1" connectable="0" parent="Saez-D12AgWFrH29UN2s-204">
          <mxGeometry x="-0.7913" y="-1" relative="1" as="geometry">
            <mxPoint as="offset" />
          </mxGeometry>
        </mxCell>
        <mxCell id="Saez-D12AgWFrH29UN2s-205" style="edgeStyle=orthogonalEdgeStyle;rounded=0;orthogonalLoop=1;jettySize=auto;html=1;" edge="1" parent="1" source="Saez-D12AgWFrH29UN2s-194" target="Saez-D12AgWFrH29UN2s-195">
          <mxGeometry relative="1" as="geometry" />
        </mxCell>
        <mxCell id="Saez-D12AgWFrH29UN2s-268" value="No" style="edgeLabel;html=1;align=center;verticalAlign=middle;resizable=0;points=[];" vertex="1" connectable="0" parent="Saez-D12AgWFrH29UN2s-205">
          <mxGeometry x="-0.7273" relative="1" as="geometry">
            <mxPoint as="offset" />
          </mxGeometry>
        </mxCell>
        <mxCell id="Saez-D12AgWFrH29UN2s-194" value="" style="rhombus;whiteSpace=wrap;html=1;" vertex="1" parent="1">
          <mxGeometry x="1050" y="-820" width="40" height="40" as="geometry" />
        </mxCell>
        <mxCell id="Saez-D12AgWFrH29UN2s-216" style="edgeStyle=orthogonalEdgeStyle;rounded=0;orthogonalLoop=1;jettySize=auto;html=1;entryX=0;entryY=0.5;entryDx=0;entryDy=0;" edge="1" parent="1" source="Saez-D12AgWFrH29UN2s-195" target="Saez-D12AgWFrH29UN2s-215">
          <mxGeometry relative="1" as="geometry">
            <Array as="points">
              <mxPoint x="870" y="-740" />
              <mxPoint x="870" y="-505" />
            </Array>
          </mxGeometry>
        </mxCell>
        <mxCell id="Saez-D12AgWFrH29UN2s-195" value="Rent Video" style="rounded=1;whiteSpace=wrap;html=1;arcSize=40;fontColor=#000000;fillColor=#ffffc0;strokeColor=#ff0000;" vertex="1" parent="1">
          <mxGeometry x="920" y="-760" width="120" height="40" as="geometry" />
        </mxCell>
        <mxCell id="Saez-D12AgWFrH29UN2s-198" value="Check Overdue pending fee" style="rounded=1;whiteSpace=wrap;html=1;arcSize=40;fontColor=#000000;fillColor=#ffffc0;strokeColor=#ff0000;" vertex="1" parent="1">
          <mxGeometry x="1105" y="-760" width="120" height="40" as="geometry" />
        </mxCell>
        <mxCell id="Saez-D12AgWFrH29UN2s-199" value="" style="edgeStyle=orthogonalEdgeStyle;html=1;verticalAlign=bottom;endArrow=open;endSize=8;strokeColor=#ff0000;rounded=0;" edge="1" parent="1" source="Saez-D12AgWFrH29UN2s-198">
          <mxGeometry relative="1" as="geometry">
            <mxPoint x="1165" y="-660" as="targetPoint" />
          </mxGeometry>
        </mxCell>
        <mxCell id="Saez-D12AgWFrH29UN2s-208" style="edgeStyle=orthogonalEdgeStyle;rounded=0;orthogonalLoop=1;jettySize=auto;html=1;entryX=0.75;entryY=0.5;entryDx=0;entryDy=0;entryPerimeter=0;" edge="1" parent="1" source="Saez-D12AgWFrH29UN2s-207" target="Saez-D12AgWFrH29UN2s-259">
          <mxGeometry relative="1" as="geometry">
            <mxPoint x="1010" y="-680" as="targetPoint" />
          </mxGeometry>
        </mxCell>
        <mxCell id="Saez-D12AgWFrH29UN2s-209" value="No" style="edgeLabel;html=1;align=center;verticalAlign=middle;resizable=0;points=[];" vertex="1" connectable="0" parent="Saez-D12AgWFrH29UN2s-208">
          <mxGeometry x="-0.8367" y="-3" relative="1" as="geometry">
            <mxPoint as="offset" />
          </mxGeometry>
        </mxCell>
        <mxCell id="Saez-D12AgWFrH29UN2s-213" style="edgeStyle=orthogonalEdgeStyle;rounded=0;orthogonalLoop=1;jettySize=auto;html=1;entryX=0;entryY=0.5;entryDx=0;entryDy=0;" edge="1" parent="1" source="Saez-D12AgWFrH29UN2s-207" target="Saez-D12AgWFrH29UN2s-211">
          <mxGeometry relative="1" as="geometry" />
        </mxCell>
        <mxCell id="Saez-D12AgWFrH29UN2s-266" value="Yes" style="edgeLabel;html=1;align=center;verticalAlign=middle;resizable=0;points=[];" vertex="1" connectable="0" parent="Saez-D12AgWFrH29UN2s-213">
          <mxGeometry x="-0.5556" y="-1" relative="1" as="geometry">
            <mxPoint y="-11" as="offset" />
          </mxGeometry>
        </mxCell>
        <mxCell id="Saez-D12AgWFrH29UN2s-207" value="" style="rhombus;whiteSpace=wrap;html=1;" vertex="1" parent="1">
          <mxGeometry x="1145" y="-660" width="40" height="40" as="geometry" />
        </mxCell>
        <mxCell id="Saez-D12AgWFrH29UN2s-211" value="Pay Overdue Fee" style="rounded=1;whiteSpace=wrap;html=1;arcSize=40;fontColor=#000000;fillColor=#ffffc0;strokeColor=#ff0000;" vertex="1" parent="1">
          <mxGeometry x="1220" y="-660" width="120" height="40" as="geometry" />
        </mxCell>
        <mxCell id="Saez-D12AgWFrH29UN2s-212" value="" style="edgeStyle=orthogonalEdgeStyle;html=1;verticalAlign=bottom;endArrow=open;endSize=8;strokeColor=#ff0000;rounded=0;entryX=0.25;entryY=0.5;entryDx=0;entryDy=0;entryPerimeter=0;" edge="1" source="Saez-D12AgWFrH29UN2s-211" parent="1" target="Saez-D12AgWFrH29UN2s-259">
          <mxGeometry relative="1" as="geometry">
            <mxPoint x="950" y="-670" as="targetPoint" />
            <Array as="points">
              <mxPoint x="1285" y="-590" />
              <mxPoint x="930" y="-590" />
            </Array>
          </mxGeometry>
        </mxCell>
        <mxCell id="Saez-D12AgWFrH29UN2s-215" value="" style="ellipse;html=1;shape=endState;fillColor=#000000;strokeColor=#ff0000;" vertex="1" parent="1">
          <mxGeometry x="1270" y="-520" width="30" height="30" as="geometry" />
        </mxCell>
        <mxCell id="Saez-D12AgWFrH29UN2s-220" value="" style="ellipse;html=1;shape=startState;fillColor=#000000;strokeColor=#ff0000;" vertex="1" parent="1">
          <mxGeometry x="1654" y="-1169" width="30" height="30" as="geometry" />
        </mxCell>
        <mxCell id="Saez-D12AgWFrH29UN2s-221" value="" style="edgeStyle=orthogonalEdgeStyle;html=1;verticalAlign=bottom;endArrow=open;endSize=8;strokeColor=#ff0000;rounded=0;" edge="1" source="Saez-D12AgWFrH29UN2s-220" parent="1">
          <mxGeometry relative="1" as="geometry">
            <mxPoint x="1669" y="-1079" as="targetPoint" />
          </mxGeometry>
        </mxCell>
        <mxCell id="Saez-D12AgWFrH29UN2s-262" style="edgeStyle=orthogonalEdgeStyle;rounded=0;orthogonalLoop=1;jettySize=auto;html=1;exitX=0.5;exitY=1;exitDx=0;exitDy=0;entryX=0.5;entryY=0;entryDx=0;entryDy=0;" edge="1" parent="1" source="Saez-D12AgWFrH29UN2s-229" target="Saez-D12AgWFrH29UN2s-246">
          <mxGeometry relative="1" as="geometry" />
        </mxCell>
        <mxCell id="Saez-D12AgWFrH29UN2s-263" style="edgeStyle=orthogonalEdgeStyle;rounded=0;orthogonalLoop=1;jettySize=auto;html=1;" edge="1" parent="1" source="Saez-D12AgWFrH29UN2s-229" target="Saez-D12AgWFrH29UN2s-248">
          <mxGeometry relative="1" as="geometry" />
        </mxCell>
        <mxCell id="Saez-D12AgWFrH29UN2s-229" value="Manage Videos" style="rounded=1;whiteSpace=wrap;html=1;arcSize=40;fontColor=#000000;fillColor=#ffffc0;strokeColor=#ff0000;" vertex="1" parent="1">
          <mxGeometry x="1510" y="-1007" width="120" height="40" as="geometry" />
        </mxCell>
        <mxCell id="Saez-D12AgWFrH29UN2s-231" value="Get Overdue List" style="rounded=1;whiteSpace=wrap;html=1;arcSize=40;fontColor=#000000;fillColor=#ffffc0;strokeColor=#ff0000;" vertex="1" parent="1">
          <mxGeometry x="1718" y="-1007" width="120" height="40" as="geometry" />
        </mxCell>
        <mxCell id="Saez-D12AgWFrH29UN2s-232" value="" style="edgeStyle=orthogonalEdgeStyle;html=1;verticalAlign=bottom;endArrow=open;endSize=8;strokeColor=#ff0000;rounded=0;" edge="1" parent="1" source="Saez-D12AgWFrH29UN2s-231">
          <mxGeometry relative="1" as="geometry">
            <mxPoint x="1778" y="-907" as="targetPoint" />
          </mxGeometry>
        </mxCell>
        <mxCell id="Saez-D12AgWFrH29UN2s-234" value="Filter Overdue Period" style="rounded=1;whiteSpace=wrap;html=1;arcSize=40;fontColor=#000000;fillColor=#ffffc0;strokeColor=#ff0000;" vertex="1" parent="1">
          <mxGeometry x="1718" y="-910" width="120" height="40" as="geometry" />
        </mxCell>
        <mxCell id="Saez-D12AgWFrH29UN2s-235" value="" style="edgeStyle=orthogonalEdgeStyle;html=1;verticalAlign=bottom;endArrow=open;endSize=8;strokeColor=#ff0000;rounded=0;entryX=0.5;entryY=0;entryDx=0;entryDy=0;" edge="1" source="Saez-D12AgWFrH29UN2s-234" parent="1" target="Saez-D12AgWFrH29UN2s-236">
          <mxGeometry relative="1" as="geometry">
            <mxPoint x="1778" y="-810" as="targetPoint" />
          </mxGeometry>
        </mxCell>
        <mxCell id="Saez-D12AgWFrH29UN2s-236" value="Notify Customers" style="rounded=1;whiteSpace=wrap;html=1;arcSize=40;fontColor=#000000;fillColor=#ffffc0;strokeColor=#ff0000;" vertex="1" parent="1">
          <mxGeometry x="1654" y="-730" width="120" height="40" as="geometry" />
        </mxCell>
        <mxCell id="Saez-D12AgWFrH29UN2s-237" value="" style="edgeStyle=orthogonalEdgeStyle;html=1;verticalAlign=bottom;endArrow=open;endSize=8;strokeColor=#ff0000;rounded=0;entryX=0.5;entryY=0;entryDx=0;entryDy=0;" edge="1" source="Saez-D12AgWFrH29UN2s-236" parent="1" target="Saez-D12AgWFrH29UN2s-241">
          <mxGeometry relative="1" as="geometry">
            <mxPoint x="1714" y="-630" as="targetPoint" />
          </mxGeometry>
        </mxCell>
        <mxCell id="Saez-D12AgWFrH29UN2s-241" value="" style="ellipse;html=1;shape=endState;fillColor=#000000;strokeColor=#ff0000;" vertex="1" parent="1">
          <mxGeometry x="1699" y="-510" width="30" height="30" as="geometry" />
        </mxCell>
        <mxCell id="Saez-D12AgWFrH29UN2s-244" style="edgeStyle=orthogonalEdgeStyle;rounded=0;orthogonalLoop=1;jettySize=auto;html=1;exitX=0.25;exitY=0.5;exitDx=0;exitDy=0;exitPerimeter=0;entryX=0.5;entryY=0;entryDx=0;entryDy=0;" edge="1" parent="1" source="Saez-D12AgWFrH29UN2s-242" target="Saez-D12AgWFrH29UN2s-229">
          <mxGeometry relative="1" as="geometry" />
        </mxCell>
        <mxCell id="Saez-D12AgWFrH29UN2s-245" style="edgeStyle=orthogonalEdgeStyle;rounded=0;orthogonalLoop=1;jettySize=auto;html=1;exitX=0.75;exitY=0.5;exitDx=0;exitDy=0;exitPerimeter=0;entryX=0.5;entryY=0;entryDx=0;entryDy=0;" edge="1" parent="1" source="Saez-D12AgWFrH29UN2s-242" target="Saez-D12AgWFrH29UN2s-231">
          <mxGeometry relative="1" as="geometry" />
        </mxCell>
        <mxCell id="Saez-D12AgWFrH29UN2s-242" value="" style="shape=line;html=1;strokeWidth=6;strokeColor=#ff0000;" vertex="1" parent="1">
          <mxGeometry x="1569" y="-1070" width="200" height="10" as="geometry" />
        </mxCell>
        <mxCell id="Saez-D12AgWFrH29UN2s-246" value="Check Video condition" style="rounded=1;whiteSpace=wrap;html=1;arcSize=40;fontColor=#000000;fillColor=#ffffc0;strokeColor=#ff0000;" vertex="1" parent="1">
          <mxGeometry x="1449" y="-940" width="120" height="40" as="geometry" />
        </mxCell>
        <mxCell id="Saez-D12AgWFrH29UN2s-247" value="" style="edgeStyle=orthogonalEdgeStyle;html=1;verticalAlign=bottom;endArrow=open;endSize=8;strokeColor=#ff0000;rounded=0;" edge="1" source="Saez-D12AgWFrH29UN2s-246" parent="1">
          <mxGeometry relative="1" as="geometry">
            <mxPoint x="1509" y="-840" as="targetPoint" />
          </mxGeometry>
        </mxCell>
        <mxCell id="Saez-D12AgWFrH29UN2s-248" value="Add Video" style="rounded=1;whiteSpace=wrap;html=1;arcSize=40;fontColor=#000000;fillColor=#ffffc0;strokeColor=#ff0000;" vertex="1" parent="1">
          <mxGeometry x="1590" y="-940" width="120" height="40" as="geometry" />
        </mxCell>
        <mxCell id="Saez-D12AgWFrH29UN2s-253" style="edgeStyle=orthogonalEdgeStyle;rounded=0;orthogonalLoop=1;jettySize=auto;html=1;" edge="1" parent="1" source="Saez-D12AgWFrH29UN2s-250" target="Saez-D12AgWFrH29UN2s-251">
          <mxGeometry relative="1" as="geometry">
            <Array as="points">
              <mxPoint x="1429" y="-800" />
            </Array>
          </mxGeometry>
        </mxCell>
        <mxCell id="Saez-D12AgWFrH29UN2s-272" value="Yes" style="edgeLabel;html=1;align=center;verticalAlign=middle;resizable=0;points=[];" vertex="1" connectable="0" parent="Saez-D12AgWFrH29UN2s-253">
          <mxGeometry x="-0.58" relative="1" as="geometry">
            <mxPoint as="offset" />
          </mxGeometry>
        </mxCell>
        <mxCell id="Saez-D12AgWFrH29UN2s-265" style="edgeStyle=orthogonalEdgeStyle;rounded=0;orthogonalLoop=1;jettySize=auto;html=1;" edge="1" parent="1" source="Saez-D12AgWFrH29UN2s-250">
          <mxGeometry relative="1" as="geometry">
            <mxPoint x="1570" y="-590" as="targetPoint" />
          </mxGeometry>
        </mxCell>
        <mxCell id="Saez-D12AgWFrH29UN2s-273" value="No" style="edgeLabel;html=1;align=center;verticalAlign=middle;resizable=0;points=[];" vertex="1" connectable="0" parent="Saez-D12AgWFrH29UN2s-265">
          <mxGeometry x="-0.8895" relative="1" as="geometry">
            <mxPoint as="offset" />
          </mxGeometry>
        </mxCell>
        <mxCell id="Saez-D12AgWFrH29UN2s-250" value="" style="rhombus;whiteSpace=wrap;html=1;" vertex="1" parent="1">
          <mxGeometry x="1489" y="-840" width="40" height="40" as="geometry" />
        </mxCell>
        <mxCell id="Saez-D12AgWFrH29UN2s-251" value="Remove Video" style="rounded=1;whiteSpace=wrap;html=1;arcSize=40;fontColor=#000000;fillColor=#ffffc0;strokeColor=#ff0000;" vertex="1" parent="1">
          <mxGeometry x="1369" y="-780" width="120" height="40" as="geometry" />
        </mxCell>
        <mxCell id="Saez-D12AgWFrH29UN2s-252" value="" style="edgeStyle=orthogonalEdgeStyle;html=1;verticalAlign=bottom;endArrow=open;endSize=8;strokeColor=#ff0000;rounded=0;entryX=0;entryY=0.5;entryDx=0;entryDy=0;" edge="1" source="Saez-D12AgWFrH29UN2s-251" parent="1" target="Saez-D12AgWFrH29UN2s-236">
          <mxGeometry relative="1" as="geometry">
            <mxPoint x="1450" y="-655" as="targetPoint" />
            <Array as="points">
              <mxPoint x="1429" y="-710" />
            </Array>
          </mxGeometry>
        </mxCell>
        <mxCell id="Saez-D12AgWFrH29UN2s-256" style="edgeStyle=orthogonalEdgeStyle;rounded=0;orthogonalLoop=1;jettySize=auto;html=1;entryX=0;entryY=0.5;entryDx=0;entryDy=0;" edge="1" parent="1" target="Saez-D12AgWFrH29UN2s-241">
          <mxGeometry relative="1" as="geometry">
            <mxPoint x="1500" y="-590" as="sourcePoint" />
            <Array as="points">
              <mxPoint x="1500" y="-495" />
            </Array>
          </mxGeometry>
        </mxCell>
        <mxCell id="Saez-D12AgWFrH29UN2s-261" style="edgeStyle=orthogonalEdgeStyle;rounded=0;orthogonalLoop=1;jettySize=auto;html=1;" edge="1" parent="1" source="Saez-D12AgWFrH29UN2s-259" target="Saez-D12AgWFrH29UN2s-195">
          <mxGeometry relative="1" as="geometry" />
        </mxCell>
        <mxCell id="Saez-D12AgWFrH29UN2s-259" value="" style="shape=line;html=1;strokeWidth=6;strokeColor=#ff0000;" vertex="1" parent="1">
          <mxGeometry x="880" y="-690" width="200" height="10" as="geometry" />
        </mxCell>
      </root>
    </mxGraphModel>
  </diagram>
</mxfile>
